<?xml version="1.0" standalone="no"?>
<!DOCTYPE svg PUBLIC "-//W3C//DTD SVG 20010904//EN"
 "http://www.w3.org/TR/2001/REC-SVG-20010904/DTD/svg10.dtd">
<svg version="1.0" xmlns="http://www.w3.org/2000/svg"
 width="712.000000pt" height="712.000000pt" viewBox="0 0 712.000000 712.000000"
 preserveAspectRatio="xMidYMid meet">
<metadata>
Created by potrace 1.14, written by Peter Selinger 2001-2017
</metadata>
<g transform="translate(0.000000,712.000000) scale(0.100000,-0.100000)"
fill="#000000" stroke="none">
<path d="M1953 5553 c-13 -3 -23 -11 -23 -19 0 -12 -4 -13 -22 -3 -16 9 -75
10 -213 6 -190 -6 -249 -13 -380 -41 -217 -47 -444 -66 -666 -57 -82 4 -89 2
-142 -28 -47 -27 -60 -30 -77 -21 -25 13 -56 5 -64 -17 -10 -26 42 -167 85
-230 86 -128 231 -260 381 -346 27 -16 48 -34 48 -42 0 -26 120 -155 213 -229
88 -70 137 -116 124 -116 -13 0 39 -84 63 -102 31 -23 135 -59 171 -60 18 -1
26 -5 22 -14 -2 -7 -18 -12 -35 -12 -36 1 -52 -17 -99 -112 -18 -36 -43 -79
-56 -96 -55 -74 -132 -290 -133 -373 0 -31 2 -33 27 -26 32 8 43 21 43 54 0
13 3 22 6 19 3 -4 -2 -71 -10 -150 -9 -78 -17 -161 -19 -183 l-3 -40 -8 33
c-11 41 -23 32 -70 -51 -72 -131 -101 -317 -56 -365 12 -12 29 -22 39 -22 17
0 19 9 20 80 1 78 7 124 20 145 15 26 41 114 42 145 2 46 6 23 14 -73 7 -85
21 -103 55 -72 16 15 20 31 20 84 0 87 25 308 44 396 41 192 174 460 303 610
62 73 117 124 127 118 5 -3 6 -1 2 5 -11 18 66 68 126 81 31 7 58 15 60 19 2
4 21 16 43 27 22 11 51 30 65 43 14 12 33 25 42 28 21 6 34 42 20 56 -18 18
-139 57 -225 73 -44 8 -155 24 -246 35 -173 21 -228 30 -346 56 -102 23 -281
78 -352 108 -112 47 -177 96 -86 65 21 -7 44 -13 51 -12 6 0 23 1 37 2 14 0
25 4 25 9 0 8 -153 92 -169 92 -6 0 -10 -14 -9 -30 1 -20 7 -29 15 -26 7 3 15
1 18 -3 3 -5 -3 -12 -12 -15 -10 -4 -27 3 -47 21 -16 15 -35 33 -41 38 -6 6
-28 38 -48 72 -21 34 -73 95 -117 136 -44 42 -80 80 -80 85 0 6 16 24 35 40
53 47 134 53 305 22 47 -8 97 -8 190 0 69 6 179 15 245 20 66 6 174 19 240 30
120 20 306 40 314 33 11 -9 -13 -15 -55 -15 -42 1 -110 -20 -124 -38 -3 -4
-36 -26 -75 -49 -81 -50 -56 -45 63 10 75 36 89 39 158 37 57 -1 78 2 85 12
12 21 6 33 -22 42 -15 5 -5 6 27 3 32 -2 58 1 69 8 13 11 27 8 73 -14 31 -15
92 -37 135 -48 105 -28 142 -49 207 -114 53 -53 128 -162 118 -172 -3 -3 -25
2 -49 10 -53 19 -329 75 -369 75 -43 0 -60 -10 -60 -34 0 -32 43 -51 185 -82
129 -27 296 -81 307 -97 3 -6 9 -29 12 -52 5 -29 17 -52 41 -75 56 -55 132
-50 110 8 -6 15 -8 15 -18 2 -27 -36 -51 -7 -71 83 -6 25 -4 27 29 27 33 0 38
-5 34 -36 -1 -12 37 -33 61 -34 14 0 39 9 56 19 23 14 35 16 49 9 19 -12 46
-10 335 23 150 17 255 22 460 22 279 0 378 -9 485 -46 93 -31 291 -129 380
-186 44 -28 86 -51 93 -51 24 0 13 57 -17 89 -16 17 -27 31 -24 31 22 0 126
-62 169 -101 29 -27 70 -57 91 -68 49 -25 109 -83 164 -157 24 -33 49 -64 54
-70 6 -6 21 -27 35 -47 14 -20 29 -37 33 -37 4 0 -2 13 -14 29 -12 17 -18 34
-14 42 5 7 4 10 -3 6 -6 -4 -33 26 -63 70 -29 43 -65 93 -81 111 -15 18 -28
35 -28 38 0 7 94 -59 98 -68 2 -5 8 -8 14 -8 16 0 119 -65 153 -97 42 -39 104
-124 155 -213 67 -116 153 -193 136 -122 -4 15 -18 48 -31 73 -13 26 -21 50
-17 54 4 5 2 6 -3 2 -6 -3 -20 12 -33 33 -12 21 -19 41 -14 43 10 6 283 -199
382 -287 362 -319 463 -458 559 -761 49 -155 53 -162 72 -139 19 23 15 98 -11
191 -11 42 -19 77 -17 79 7 8 97 -212 163 -401 14 -38 37 -126 52 -195 24
-113 26 -146 27 -335 0 -166 -4 -228 -18 -295 -19 -88 -93 -289 -112 -302 -5
-4 -23 -8 -38 -8 -16 0 -63 -9 -105 -19 -43 -11 -133 -27 -202 -36 -69 -9
-152 -20 -186 -26 -88 -13 -91 -12 -64 16 13 14 28 25 33 25 23 0 137 87 148
113 7 16 25 41 41 57 15 16 24 31 18 35 -5 3 -7 19 -4 34 5 23 2 32 -14 40
-12 6 -27 11 -35 11 -16 0 -40 -48 -35 -70 2 -8 -15 -23 -37 -35 -22 -12 -80
-44 -130 -70 -49 -27 -131 -79 -182 -117 -92 -68 -116 -75 -136 -41 -15 24
-87 54 -118 49 -31 -5 -31 -2 3 44 30 41 39 87 22 105 -14 13 -20 12 -59 -15
-50 -34 -48 -40 -17 85 29 114 45 274 40 395 -3 88 -8 112 -28 148 -13 23 -30
41 -38 40 -14 -3 -43 -73 -34 -83 3 -3 0 -5 -7 -5 -9 0 -11 6 -6 18 23 56 33
348 15 456 -7 45 -17 67 -41 92 l-32 33 38 16 c41 16 117 90 140 135 9 17 28
31 53 38 53 16 99 66 117 126 8 27 23 58 32 69 17 18 17 20 2 30 -15 9 -15 14
-2 45 8 19 13 48 11 66 -3 26 -8 32 -33 34 -16 2 -36 8 -43 14 -9 8 -17 6 -30
-6 -10 -9 -23 -16 -29 -16 -19 0 -128 125 -178 203 -28 43 -79 115 -115 161
-36 46 -78 101 -95 122 -68 91 -223 233 -345 319 -134 94 -140 97 -140 69 0
-9 49 -64 108 -122 113 -111 314 -334 466 -516 22 -28 79 -90 126 -140 47 -49
104 -110 127 -135 40 -42 52 -69 18 -41 -10 8 -29 10 -59 6 -46 -7 -61 -26
-68 -86 -3 -21 -9 -25 -41 -28 -55 -5 -175 32 -285 87 -90 46 -436 269 -500
323 -37 31 -87 98 -73 98 6 0 11 -4 11 -10 0 -5 7 -10 15 -10 8 0 15 4 15 10
0 13 -71 80 -80 75 -7 -5 -25 50 -33 100 -2 17 -2 24 0 18 8 -24 20 -13 32 28
10 34 10 44 -4 65 -8 13 -19 24 -24 24 -4 0 -20 11 -36 25 -21 20 -30 23 -41
14 -21 -18 -18 -160 6 -254 23 -91 56 -151 118 -217 l45 -48 -32 6 c-27 6 -31
4 -31 -14 0 -85 73 -277 132 -348 21 -25 61 -64 90 -87 67 -52 133 -110 133
-117 0 -3 4 -11 8 -17 12 -19 -1 -16 -30 7 -15 11 -28 19 -30 16 -2 -2 11 -28
29 -57 75 -123 116 -175 163 -204 44 -27 55 -30 126 -28 88 3 148 25 164 61 5
12 12 22 15 22 12 0 -3 -75 -16 -83 -8 -4 -14 -15 -14 -23 0 -8 4 -12 10 -9
14 9 18 -22 30 -207 6 -92 15 -179 20 -193 9 -24 14 -27 50 -29 33 -2 36 -226
4 -383 -32 -156 -106 -333 -169 -398 -20 -22 -42 -52 -47 -67 -6 -16 -30 -40
-60 -58 -27 -17 -48 -36 -46 -42 2 -6 22 -18 44 -25 32 -12 118 -13 504 -8
571 7 906 18 916 28 4 4 -13 8 -37 8 -31 1 -20 4 36 10 190 20 187 20 217 50
23 23 27 32 19 48 -6 10 -22 22 -36 25 -14 4 -25 10 -25 14 0 18 39 107 46
105 46 -8 158 -13 174 -8 25 8 50 61 50 106 0 25 -10 41 -44 73 -24 23 -47 55
-51 71 -4 17 -9 104 -10 195 -3 164 -19 280 -50 353 -7 18 -21 71 -29 118 -25
129 -38 171 -106 338 -79 194 -94 226 -158 335 -29 48 -52 89 -50 90 2 1 28
18 58 38 58 39 104 90 120 133 17 44 11 117 -15 175 -13 30 -22 56 -21 57 6 7
45 -11 40 -18 -3 -5 1 -6 8 -4 19 7 92 -70 83 -86 -5 -7 -4 -10 3 -5 26 16 32
-116 6 -169 -19 -41 -18 -45 16 -38 21 4 28 14 39 56 22 85 24 122 7 180 -42
145 -246 239 -383 178 -82 -38 -135 -151 -97 -209 28 -43 84 -90 115 -97 16
-4 29 -11 29 -16 0 -6 4 -7 10 -4 20 12 -4 -30 -29 -52 -51 -44 -84 -25 -141
81 -25 46 -30 66 -26 95 8 46 -9 78 -19 38 -4 -15 -5 -39 -2 -53 7 -41 -13
-24 -94 77 -106 132 -297 299 -494 432 -272 185 -436 288 -520 328 -44 22 -98
50 -120 64 -22 14 -58 35 -79 46 -27 15 -35 23 -26 29 18 11 -24 33 -48 26
-12 -4 -42 11 -82 40 -178 126 -409 207 -740 260 -147 23 -575 15 -770 -15
-180 -28 -280 -49 -347 -72 -69 -23 -119 -25 -127 -3 -3 8 -35 28 -71 45 -47
21 -65 35 -65 48 0 26 -51 121 -86 162 -138 158 -374 299 -471 282z m-724
-903 c124 -30 437 -70 552 -70 32 0 59 -3 59 -7 0 -5 -26 -23 -58 -41 -31 -18
-86 -59 -121 -91 -51 -46 -67 -56 -77 -46 -7 7 -37 15 -68 19 -64 7 -108 25
-99 39 3 6 1 7 -6 3 -25 -16 -176 79 -211 133 -28 41 -39 49 -95 73 -62 26
-14 22 124 -12z m221 -444 c0 -3 -4 -8 -10 -11 -5 -3 -10 -1 -10 4 0 6 5 11
10 11 6 0 10 -2 10 -4z m4935 -283 c-5 -10 -10 -46 -13 -80 -4 -56 -7 -63 -26
-63 -32 0 -85 36 -91 63 -8 32 10 76 37 87 13 5 40 9 62 9 33 1 37 -2 31 -16z
m-1597 -381 c104 -68 195 -105 300 -122 93 -15 87 -35 -9 -27 -52 4 -87 15
-146 45 -82 42 -188 108 -238 150 -46 39 -8 20 93 -46z m602 53 c-7 -8 -18
-15 -24 -15 -6 0 -2 7 8 15 25 19 32 19 16 0z m860 -110 c0 -5 -5 -3 -10 5 -5
8 -10 20 -10 25 0 6 5 3 10 -5 5 -8 10 -19 10 -25z m18 -50 c-3 -3 -9 2 -12
12 -6 14 -5 15 5 6 7 -7 10 -15 7 -18z m-1556 -162 c38 -51 226 -114 341 -115
65 0 77 -3 77 -17 0 -9 -5 -23 -10 -31 -8 -12 -10 -9 -10 12 l0 27 -65 -6
c-66 -6 -161 8 -224 34 -61 26 -163 113 -132 113 6 0 16 -8 23 -17z m2058
-1373 c0 -5 -5 -10 -11 -10 -5 0 -7 5 -4 10 3 6 8 10 11 10 2 0 4 -4 4 -10z
m-1443 -92 c2 -17 0 -19 -7 -8 -5 8 -6 18 -4 22 8 12 10 10 11 -14z"/>
<path d="M1360 5285 c-41 -13 -95 -24 -120 -25 -25 -1 -65 -5 -90 -10 -35 -7
-24 -8 50 -5 89 4 208 32 235 56 11 11 17 12 -75 -16z"/>
<path d="M1079 5195 c18 -8 36 -15 40 -15 13 1 -45 29 -59 29 -8 0 0 -6 19
-14z"/>
<path d="M2600 4900 c0 -5 5 -10 11 -10 5 0 7 5 4 10 -3 6 -8 10 -11 10 -2 0
-4 -4 -4 -10z"/>
<path d="M1920 4747 c0 -46 175 -97 270 -79 l45 9 -35 15 c-42 18 -179 54
-237 62 -33 5 -43 3 -43 -7z"/>
<path d="M4600 4639 c0 -11 55 -37 101 -46 22 -4 29 -2 29 11 0 9 -8 16 -19
16 -10 0 -32 7 -47 15 -34 17 -64 20 -64 4z"/>
<path d="M5354 4007 c6 -48 46 -133 80 -171 31 -35 48 -26 24 12 -21 34 -68
130 -68 140 0 4 -10 18 -21 32 l-21 25 6 -38z"/>
<path d="M1740 3390 c0 -16 79 -120 90 -120 6 0 10 13 10 30 0 22 -10 39 -37
65 -38 34 -63 44 -63 25z"/>
<path d="M1785 3235 c-27 -7 -72 -23 -100 -35 -78 -33 -162 -50 -260 -50 -116
0 -136 -6 -131 -35 10 -57 42 -80 126 -94 53 -8 53 -9 15 -10 -78 -4 -103 -9
-124 -23 -21 -15 -21 -15 11 -47 18 -17 42 -34 54 -37 34 -9 263 78 341 129
56 36 183 156 183 173 0 14 -38 44 -55 43 -5 0 -32 -6 -60 -14z"/>
<path d="M1182 2971 c-20 -21 -44 -52 -52 -67 -8 -16 -22 -37 -32 -47 -10 -10
-18 -27 -18 -38 0 -12 -19 -40 -43 -62 -23 -23 -68 -78 -99 -123 -31 -44 -70
-94 -86 -110 -79 -81 -83 -160 -5 -125 24 11 25 10 18 -11 -3 -13 -9 -85 -12
-161 -6 -153 5 -234 42 -307 32 -64 45 -73 97 -65 36 5 47 3 62 -14 10 -11 15
-24 11 -30 -3 -6 0 -9 7 -6 7 3 26 -13 41 -35 l28 -40 -28 5 c-142 22 -498 44
-735 45 -84 0 -112 -14 -106 -54 5 -37 46 -45 299 -61 433 -26 530 -36 579
-56 l45 -18 -45 2 c-43 2 -45 0 -48 -26 -6 -51 35 -80 188 -135 112 -39 147
-48 325 -77 478 -78 812 -92 1350 -56 148 9 471 24 810 37 260 9 549 24 685
35 153 12 558 62 698 86 91 15 161 47 151 68 -5 12 -304 14 -419 3 -137 -13
-890 -47 -1280 -58 -212 -6 -468 -13 -570 -17 l-185 -6 26 21 c14 11 31 40 39
64 7 24 24 54 37 69 13 14 23 32 23 41 0 10 10 18 22 20 32 4 36 36 5 43 -14
4 -35 18 -48 31 -35 37 -59 27 -59 -26 0 -22 -32 -37 -180 -85 -63 -20 -128
-44 -144 -52 -22 -12 -46 -13 -105 -8 -42 4 -81 11 -86 15 -20 17 -276 93
-352 105 -51 8 -141 -4 -122 -16 11 -7 12 -9 1 -9 -7 0 -21 8 -30 17 -16 16
-17 15 -20 -5 -2 -12 -8 -22 -14 -22 -5 0 -8 6 -5 13 4 10 -20 13 -107 15 -61
1 -120 5 -131 8 -24 7 -104 42 -125 55 -48 29 -103 48 -159 54 -50 6 -74 15
-110 41 -56 40 -105 100 -95 116 4 7 3 8 -5 4 -8 -5 -22 15 -42 59 -48 107
-62 177 -63 310 0 135 8 166 95 354 45 96 51 103 74 99 20 -4 29 1 44 26 17
28 51 157 51 192 0 29 -50 14 -88 -25z m128 -1191 c0 -5 -7 -7 -15 -4 -8 4
-15 8 -15 10 0 2 7 4 15 4 8 0 15 -4 15 -10z m40 -10 c0 -6 12 -8 28 -4 18 4
23 3 14 -4 -11 -7 -11 -10 2 -15 9 -4 16 -1 17 6 0 9 2 9 6 -1 2 -6 9 -10 14
-6 5 3 16 -2 25 -10 14 -15 14 -16 0 -16 -9 0 -16 5 -16 11 0 5 -5 7 -10 4
-14 -9 -111 26 -104 37 7 11 24 10 24 -2z m513 -267 c-7 -2 -21 -2 -30 0 -10
3 -4 5 12 5 17 0 24 -2 18 -5z m181 -18 l31 -14 -30 4 c-16 3 -61 8 -100 12
l-70 7 45 7 c51 7 80 4 124 -16z m483 -61 c-3 -3 -39 -2 -79 2 l-73 9 70 5
c65 5 97 -1 82 -16z"/>
<path d="M3233 2949 c-29 -22 -53 -46 -53 -54 0 -25 138 -162 189 -188 73 -39
180 -58 351 -64 185 -6 265 5 295 42 11 13 35 27 53 31 34 7 43 32 20 52 -8 6
-111 12 -258 15 -178 3 -264 9 -315 21 -68 15 -255 100 -255 115 0 4 11 18 25
31 14 13 25 27 25 32 0 17 -27 6 -77 -33z"/>
<path d="M1850 2973 c-84 -30 -200 -112 -264 -186 -90 -101 -131 -211 -156
-414 -15 -115 -4 -216 29 -281 35 -68 88 -119 139 -136 124 -40 258 -26 250
26 -3 19 -13 25 -73 36 -38 8 -91 15 -117 16 -108 3 -163 132 -138 324 26 203
66 272 248 432 75 66 145 120 156 120 31 0 104 -39 127 -68 11 -15 23 -25 25
-22 5 8 131 -119 171 -173 19 -26 38 -46 40 -43 7 7 -64 132 -109 193 -44 60
-147 149 -195 169 -32 14 -104 17 -133 7z"/>
<path d="M3190 2960 c0 -5 5 -10 10 -10 6 0 10 5 10 10 0 6 -4 10 -10 10 -5 0
-10 -4 -10 -10z"/>
<path d="M3990 2872 c0 -21 38 -50 69 -54 45 -4 41 13 -10 40 -45 24 -59 27
-59 14z"/>
<path d="M1826 2780 c-16 -5 -34 -6 -40 -3 -6 3 -8 3 -4 -1 3 -4 -11 -24 -33
-43 -21 -19 -39 -42 -39 -50 0 -8 -4 -11 -10 -8 -5 3 -7 0 -4 -9 4 -12 14 -9
47 14 23 16 51 30 62 31 64 5 96 -3 145 -37 102 -70 210 -189 195 -214 -3 -6
-1 -9 6 -8 21 5 68 -157 69 -239 0 -111 -16 -167 -61 -215 -37 -39 -40 -40
-89 -36 -48 5 -50 4 -50 -20 0 -24 -1 -24 -25 -8 -13 9 -35 16 -48 16 -14 0
-36 9 -50 20 -35 28 -39 26 -35 -17 3 -33 8 -41 42 -57 58 -28 213 -35 266
-11 163 73 165 432 4 672 -24 36 -41 69 -38 74 3 5 0 8 -7 7 -7 -2 -13 4 -14
12 0 8 -6 14 -11 13 -6 -1 -33 20 -60 48 -26 27 -54 49 -60 49 -6 0 -25 7 -40
15 -32 16 -73 18 -118 5z"/>
<path d="M1581 2518 c-15 -41 -33 -309 -21 -327 3 -6 11 -6 20 -1 10 7 11 10
3 10 -7 0 -13 4 -13 8 0 5 16 7 35 6 29 -3 38 1 45 19 l9 22 0 -22 c1 -12 -7
-27 -16 -32 -20 -11 -4 -15 22 -5 39 15 58 109 34 171 -16 44 -92 173 -101
173 -5 0 -12 -10 -17 -22z"/>
<path d="M2018 2438 c-56 -100 -71 -187 -41 -226 25 -31 53 -20 53 20 0 43 20
24 21 -20 1 -20 4 -48 8 -61 15 -55 51 47 51 144 -1 71 -16 146 -33 157 -22
14 -46 8 -59 -14z"/>
</g>
</svg>
